<svg width="648" height="180" viewBox="0 0 648 180" fill="none" xmlns="http://www.w3.org/2000/svg">
<path d="M588.579 9.77709V111.323H602.265V9.77709H588.579Z" fill="black"/>
<path d="M647.999 57.1604H542.845V63.9214H647.999V57.1604Z" fill="url(#paint0_linear_1441_86)"/>
<path d="M23.6375 33.1357C23.6375 42.118 29.3105 47.0818 41.602 52.7548L57.6756 60.0825C73.2763 67.1737 83.9132 76.6287 83.9132 94.3569C83.9132 114.685 67.8397 129.104 42.5475 129.104C18.2009 129.104 3.782 114.449 0 97.4297L14.8916 89.393C17.2554 101.212 27.6559 112.558 43.7294 112.558C56.2573 112.558 65.0032 106.176 65.0032 94.3569C65.0032 85.8474 59.0938 80.1744 46.5659 74.5014L31.6743 67.6465C16.0735 60.5552 5.20025 51.573 5.20025 33.3721C5.20025 14.4621 21.0374 0.279541 43.0203 0.279541C64.7668 0.279541 78.2402 12.3347 83.9132 27.6991L69.7307 35.4994C65.9487 24.6262 56.7301 16.3531 43.493 16.3531C31.6743 16.3531 23.6375 23.4443 23.6375 33.1357Z" fill="black"/>
<path d="M529.347 64.5736C529.347 101.921 503.346 129.104 466.472 129.104C444.725 129.104 426.524 119.649 419.906 105.467H419.197C419.669 108.539 419.906 112.085 419.906 118.231V179.688H400.996V4.06155H418.724V12.3347C418.724 18.0077 418.488 21.5533 418.015 25.0989H418.724C426.761 11.3892 444.252 0.279541 467.417 0.279541C503.583 0.279541 529.347 27.4627 529.347 64.5736ZM464.817 17.0622C438.343 17.0622 419.197 37.1541 419.197 64.5736C419.197 91.9931 438.343 112.085 464.817 112.085C490.582 112.085 509.965 91.9931 509.965 64.5736C509.965 37.1541 490.582 17.0622 464.817 17.0622Z" fill="black"/>
<path fill-rule="evenodd" clip-rule="evenodd" d="M314.333 129.104C335.134 129.104 352.389 120.595 364.208 104.757L353.098 93.4114C343.643 105.23 330.879 112.085 314.569 112.085C290.695 112.085 273.44 96.2479 270.131 72.8467V56.7732C273.204 33.1357 290.459 17.0622 313.86 17.0622C337.261 17.0622 353.571 33.8448 354.989 56.7732V72.8467H373.427C373.663 70.9557 373.899 66.9373 373.899 64.5736C373.899 27.9354 349.553 0.279541 314.096 0.279541C277.458 0.279541 250.275 27.6991 250.275 64.5736C250.275 101.448 277.458 129.104 314.333 129.104Z" fill="black"/>
<path d="M129.689 120.123C113.452 108.924 103.388 90.065 102.889 67.3794H147.534C148.306 69.6171 149.448 71.683 150.885 73.5065C152.497 75.5508 154.052 77.7178 155.501 79.9332L129.689 120.123Z" fill="url(#paint1_linear_1441_86)"/>
<path fill-rule="evenodd" clip-rule="evenodd" d="M157.467 83.0809L132.504 121.949C142.23 127.879 153.931 131.208 166.963 131.208C180.32 131.208 192.349 127.615 202.274 121.246L177.207 83.1889C177.113 83.3436 177.021 83.4974 176.929 83.6502V90.4321H157.695V83.4653C157.62 83.3371 157.544 83.209 157.467 83.0809ZM175.131 93.7586H159.606C158.404 93.7586 157.429 94.734 157.429 95.9357C157.429 97.1383 158.404 98.1135 159.606 98.1135H175.131C176.333 98.1135 177.309 97.1383 177.309 95.9357C177.31 94.734 176.334 93.7586 175.131 93.7586ZM167.374 109.908C165.336 109.908 163.666 108.403 163.371 106.449C160.701 106.295 158.577 104.103 158.577 101.397H176.161C176.161 104.101 174.043 106.292 171.378 106.449C171.084 108.404 169.41 109.908 167.374 109.908Z" fill="url(#paint2_linear_1441_86)"/>
<path d="M179.174 80.0747L205.046 119.355C220.631 108.074 230.375 89.5547 230.869 67.3794H187.207C186.435 69.6184 185.292 71.6852 183.853 73.5099C182.322 75.4518 180.685 77.7694 179.174 80.0747Z" fill="url(#paint3_linear_1441_86)"/>
<path d="M188.059 64.0237H230.873C230.421 41.1685 220.15 22.1785 203.784 10.9633L181.738 45.291C185.804 49.1164 188.343 54.5471 188.343 60.5711C188.343 61.7477 188.246 62.901 188.059 64.0237Z" fill="url(#paint4_linear_1441_86)"/>
<path d="M179.103 43.1833L200.964 9.14452C191.298 3.28603 179.738 0 166.963 0C154.044 0 142.346 3.36061 132.588 9.34384L155.116 43.5478C158.564 41.0619 162.796 39.5972 167.372 39.5972C171.718 39.5972 175.755 40.9193 179.103 43.1833Z" fill="url(#paint5_linear_1441_86)"/>
<path d="M152.541 45.7391L129.777 11.1767C113.543 22.4186 103.337 41.3129 102.885 64.0237H146.682C146.495 62.9009 146.397 61.7475 146.397 60.5711C146.397 54.7787 148.745 49.5347 152.541 45.7391Z" fill="url(#paint6_linear_1441_86)"/>
<path d="M373.971 65.772H250.272L250.427 69.3272L250.748 72.8824H373.971V65.772Z" fill="url(#paint7_linear_1441_86)"/>
<defs>
<linearGradient id="paint0_linear_1441_86" x1="542.845" y1="60.5316" x2="647.999" y2="60.5316" gradientUnits="userSpaceOnUse">
<stop stop-color="#5DB6DD"/>
<stop offset="0.24" stop-color="#5AB2DA"/>
<stop offset="0.45" stop-color="#52A7D2"/>
<stop offset="0.65" stop-color="#4495C4"/>
<stop offset="0.84" stop-color="#307CB1"/>
<stop offset="1" stop-color="#1D629E"/>
</linearGradient>
<linearGradient id="paint1_linear_1441_86" x1="110.324" y1="87.4159" x2="188.78" y2="107.186" gradientUnits="userSpaceOnUse">
<stop stop-color="#1D629E"/>
<stop offset="1" stop-color="#5DB6DD"/>
</linearGradient>
<linearGradient id="paint2_linear_1441_86" x1="110.324" y1="87.4159" x2="188.78" y2="107.186" gradientUnits="userSpaceOnUse">
<stop stop-color="#1D629E"/>
<stop offset="1" stop-color="#5DB6DD"/>
</linearGradient>
<linearGradient id="paint3_linear_1441_86" x1="110.324" y1="87.4159" x2="188.78" y2="107.186" gradientUnits="userSpaceOnUse">
<stop stop-color="#1D629E"/>
<stop offset="1" stop-color="#5DB6DD"/>
</linearGradient>
<linearGradient id="paint4_linear_1441_86" x1="110.324" y1="87.4159" x2="188.78" y2="107.186" gradientUnits="userSpaceOnUse">
<stop stop-color="#1D629E"/>
<stop offset="1" stop-color="#5DB6DD"/>
</linearGradient>
<linearGradient id="paint5_linear_1441_86" x1="110.324" y1="87.4159" x2="188.78" y2="107.186" gradientUnits="userSpaceOnUse">
<stop stop-color="#1D629E"/>
<stop offset="1" stop-color="#5DB6DD"/>
</linearGradient>
<linearGradient id="paint6_linear_1441_86" x1="110.324" y1="87.4159" x2="188.78" y2="107.186" gradientUnits="userSpaceOnUse">
<stop stop-color="#1D629E"/>
<stop offset="1" stop-color="#5DB6DD"/>
</linearGradient>
<linearGradient id="paint7_linear_1441_86" x1="250.427" y1="12.0027" x2="373.971" y2="12.0027" gradientUnits="userSpaceOnUse">
<stop stop-color="#5DB6DD"/>
<stop offset="0.24" stop-color="#5AB2DA"/>
<stop offset="0.45" stop-color="#52A7D2"/>
<stop offset="0.65" stop-color="#4495C4"/>
<stop offset="0.84" stop-color="#307CB1"/>
<stop offset="1" stop-color="#1D629E"/>
</linearGradient>
</defs>
</svg>
